<?xml version="1.0" encoding="UTF-8"?>
<svg id="Capa_1" data-name="Capa 1" xmlns="http://www.w3.org/2000/svg" viewBox="0 0 200 200">
  <defs>
    <style>
      .cls-1 {
        fill: #fff;
      }
    </style>
  </defs>
  <path class="cls-1" d="M139.48,86.31l1.56,4.93v15.48s-29.99,0-29.99,0v-56.87s1.56-4.93,1.56-4.93v-.43h-23.65c-20.75,0-37.57,16.82-37.57,37.58v26.7l-1.56,4.93v.43h10.7v-.43l-1.56-4.93v-15.48s29.99,0,29.99,0v56.87s-1.56,4.93-1.56,4.93v.43h23.65c20.75,0,37.57-16.82,37.57-37.58v-26.7l1.56-4.93v-.43h-10.7v.43ZM58.97,86.37v-4.31c0-16.54,13.45-29.99,29.98-29.99v34.3s-29.98,0-29.98,0ZM96.55,148.6V51.4h6.91v97.19h-6.91ZM141.03,117.94c0,16.54-13.45,29.99-29.98,29.99v-34.3s29.98,0,29.98,0v4.31Z"/>
  <path class="cls-1" d="M100,21.78c-43.13,0-78.22,35.09-78.22,78.22s35.09,78.22,78.22,78.22,78.22-35.09,78.22-78.22S143.13,21.78,100,21.78ZM100,173.16c-40.34,0-73.16-32.82-73.16-73.16S59.66,26.84,100,26.84s73.16,32.82,73.16,73.16-32.82,73.16-73.16,73.16Z"/>
</svg>